<?xml version="1.0" encoding="utf-8"?>
<!-- Generator: Adobe Illustrator 22.1.0, SVG Export Plug-In . SVG Version: 6.00 Build 0)  -->
<svg version="1.1" id="Ebene_1" xmlns="http://www.w3.org/2000/svg" xmlns:xlink="http://www.w3.org/1999/xlink" x="0px" y="0px"
	 viewBox="0 0 311.8 170.1" style="enable-background:new 0 0 311.8 170.1;" xml:space="preserve">
<style type="text/css">
	.st0{fill:#C1392C;}
	.st1{fill:#545453;}
	.st2{fill:#8A8A8B;}
</style>
<path class="st0" d="M34.2,111.1l19-77.5h55.2c0,0-31.5,36.5-15.2,77.5H34.2z"/>
<path class="st1" d="M95.8,111.1h7.3c0,0-5.4-38,40.1-77.5h-21C122.2,33.6,87.7,63.2,95.8,111.1z"/>
<g>
	<path class="st0" d="M167.2,69.1l-10.3-16.6h-0.1l-2.9,16.6h-8.1l6.2-35.4h8.1l-2.7,14.9h0.2l14.1-14.9h10.6l-17.3,16.9l12.6,18.5
		H167.2z"/>
	<path class="st0" d="M182.2,69.1l6.2-35.4h22.7l-1.2,7.1h-14.7l-1.2,6.8h14l-1.2,6.7h-14l-1.3,7.6h16.1l-1.2,7.1H182.2z"/>
	<path class="st0" d="M231.9,33.7c4.2,0,7.4,0.9,9.6,2.6c2.2,1.7,3.3,4.1,3.3,7.2c0,2.1-0.4,3.9-1.1,5.4c-0.7,1.5-1.8,2.8-3.1,3.8
		c-1.4,1-3,1.7-4.9,2.2c-1.9,0.5-4.1,0.7-6.4,0.7h-4.5l-2.4,13.5H214l6.2-35.4H231.9z M229.4,49c2.2,0,3.9-0.3,5.2-1
		s1.9-1.9,1.9-3.6c0-0.8-0.1-1.4-0.4-1.9c-0.3-0.5-0.7-0.9-1.2-1.2c-0.5-0.3-1.1-0.5-1.8-0.6c-0.7-0.1-1.5-0.2-2.3-0.2h-3.4
		l-1.5,8.7H229.4z"/>
	<path class="st1" d="M150.2,93.4l4.8,5.7h-6.3l-1.8-2.3c-1.1,1-2.2,1.7-3.3,2.1c-1.1,0.4-2.3,0.6-3.5,0.6c-1,0-2-0.1-2.9-0.4
		c-0.9-0.2-1.7-0.6-2.4-1.1s-1.2-1.1-1.6-1.9c-0.4-0.8-0.6-1.7-0.6-2.8c0-0.9,0.1-1.7,0.4-2.4s0.7-1.4,1.2-2
		c0.5-0.6,1.2-1.1,1.9-1.5s1.5-0.8,2.4-1.1c-0.5-0.6-0.9-1.3-1.1-2c-0.2-0.7-0.4-1.4-0.4-2.2c0-0.9,0.2-1.8,0.5-2.5s0.8-1.4,1.5-2
		c0.6-0.6,1.4-1,2.2-1.3c0.9-0.3,1.8-0.5,2.8-0.5c0.9,0,1.8,0.1,2.6,0.4c0.8,0.2,1.5,0.6,2,1.1c0.6,0.5,1,1,1.4,1.7
		c0.3,0.7,0.5,1.5,0.5,2.3c0,0.7-0.1,1.4-0.4,2c-0.3,0.6-0.6,1.2-1.1,1.7c-0.5,0.5-1.1,1-1.7,1.4c-0.7,0.4-1.5,0.8-2.3,1.2l2.3,2.8
		l2.4-3.4h5.9L150.2,93.4z M140.8,89.4c-0.9,0.3-1.6,0.7-2.2,1.3c-0.6,0.5-0.9,1.3-0.9,2.2c0,0.7,0.3,1.3,0.8,1.8
		c0.6,0.5,1.2,0.7,2,0.7c0.7,0,1.4-0.2,2-0.5c0.6-0.3,1.2-0.8,1.7-1.4L140.8,89.4z M145.9,81.5c0-0.6-0.2-1.1-0.5-1.4
		c-0.3-0.4-0.8-0.5-1.4-0.5c-0.7,0-1.3,0.2-1.8,0.7c-0.4,0.5-0.7,1.1-0.7,1.8c0,0.5,0.1,1,0.3,1.5c0.2,0.5,0.5,0.9,0.8,1.2
		c0.9-0.3,1.7-0.8,2.3-1.3C145.6,82.8,145.9,82.2,145.9,81.5z"/>
	<path class="st1" d="M196.7,111.1l4.7-25.4h-0.2l-13.8,25.4h-5.8l-4.7-25.4h-0.2l-4.2,25.4h-7.8l6.2-35.4h11.6l4.1,23h0.2l11.9-23
		h12.4l-6.2,35.4H196.7z"/>
	<path class="st1" d="M236.5,93.5c0,0.5,0,1-0.1,1.5c-0.1,0.5-0.1,1.1-0.2,1.6l-1.7,9.7c-0.2,0.9-0.3,1.8-0.4,2.7
		c-0.1,0.9-0.1,1.6-0.1,2.2h-7.1c0-0.4,0-0.8,0-1.3c0-0.5,0.1-0.9,0.2-1.4H227c-1.8,2.2-4.4,3.2-7.6,3.2c-0.9,0-1.8-0.1-2.7-0.3
		s-1.8-0.6-2.5-1.1c-0.8-0.5-1.4-1.2-1.8-2c-0.5-0.9-0.7-1.9-0.7-3.1c0-2,0.5-3.6,1.5-4.9c1-1.3,2.3-2.2,3.9-3
		c1.6-0.7,3.4-1.2,5.5-1.4s4.1-0.4,6.2-0.4c0.1-0.3,0.1-0.5,0.1-0.7c0-0.2,0-0.3,0-0.5c0-1-0.3-1.7-1-2.1c-0.7-0.4-1.6-0.7-2.9-0.7
		c-1.1,0-2.3,0.2-3.4,0.7c-1.1,0.4-2.2,1-3.1,1.7l-3.3-4.6c1.5-1.2,3.2-2.1,5.2-2.8c2-0.7,3.9-1,5.8-1c1.5,0,2.9,0.2,4.2,0.5
		c1.3,0.3,2.4,0.8,3.3,1.5c0.9,0.7,1.6,1.5,2.2,2.5S236.5,92.1,236.5,93.5z M227.6,100.2c-1,0-2,0-3.1,0.1c-1,0.1-2,0.3-2.8,0.5
		s-1.5,0.6-2,1.1c-0.5,0.5-0.8,1.1-0.8,1.9c0,1,0.3,1.7,1,2c0.7,0.4,1.4,0.5,2.3,0.5c1.5,0,2.8-0.5,3.8-1.4c1-1,1.7-2.1,1.9-3.5
		l0.2-1.2H227.6z"/>
	<path class="st1" d="M239.8,111.1l4.3-24.9h8.1l-4.5,24.9H239.8z M253.9,77.8c0,0.7-0.1,1.3-0.3,1.9c-0.2,0.6-0.6,1.1-1,1.5
		c-0.4,0.5-0.9,0.8-1.5,1s-1.2,0.4-1.8,0.4c-1.3,0-2.3-0.4-3.1-1.1s-1.2-1.7-1.2-2.9c0-1.4,0.5-2.5,1.4-3.4c0.9-0.9,2-1.4,3.4-1.4
		c1.2,0,2.2,0.4,3.1,1.1C253.5,75.7,253.9,76.7,253.9,77.8z"/>
	<path class="st1" d="M254.5,111.1l6.7-37.8h8.2l-6.7,37.8H254.5z"/>
</g>
<g>
	<path class="st2" d="M32.9,124.4h3.9c0.7,0,1.4,0.1,2.1,0.3c0.7,0.2,1.3,0.5,1.9,0.9c0.6,0.4,1,1,1.4,1.7c0.3,0.7,0.5,1.5,0.5,2.4
		c0,1.1-0.2,2.1-0.6,3c-0.4,0.9-0.9,1.7-1.6,2.3c-0.7,0.6-1.5,1.1-2.5,1.5c-0.9,0.4-2,0.5-3.1,0.5h-4.3L32.9,124.4z M32.1,136.1H35
		c1,0,1.9-0.2,2.7-0.5c0.8-0.3,1.4-0.8,2-1.4c0.5-0.6,0.9-1.2,1.2-2c0.3-0.7,0.4-1.5,0.4-2.3c0-0.6-0.1-1.1-0.3-1.7
		c-0.2-0.5-0.5-1-0.9-1.4c-0.4-0.4-0.9-0.7-1.5-0.9c-0.6-0.2-1.3-0.3-2.2-0.3H34L32.1,136.1z"/>
	<path class="st2" d="M45.2,137.2H44l1.5-8.4h1.2L45.2,137.2z M47.4,125.5c0,0.2-0.1,0.4-0.2,0.6c-0.2,0.2-0.4,0.3-0.6,0.3
		c-0.2,0-0.4-0.1-0.6-0.2c-0.2-0.1-0.2-0.3-0.2-0.6s0.1-0.5,0.3-0.6s0.4-0.3,0.6-0.3s0.4,0.1,0.6,0.2
		C47.4,125.1,47.4,125.3,47.4,125.5z"/>
	<path class="st2" d="M49.5,133.3c0,0.1,0,0.1,0,0.2c0,0.1,0,0.1,0,0.2c0,0.4,0.1,0.8,0.2,1.1c0.1,0.3,0.3,0.6,0.6,0.9
		c0.2,0.2,0.5,0.4,0.9,0.6s0.7,0.2,1.1,0.2c0.7,0,1.2-0.1,1.7-0.4c0.5-0.3,0.9-0.6,1.2-1l0.8,0.7c-0.5,0.6-1.1,1-1.7,1.3
		c-0.6,0.3-1.3,0.4-2.1,0.4c-0.5,0-1-0.1-1.5-0.3c-0.5-0.2-0.9-0.4-1.2-0.7c-0.3-0.3-0.6-0.7-0.8-1.2c-0.2-0.5-0.3-1-0.3-1.6
		c0-0.7,0.1-1.3,0.4-2c0.3-0.6,0.6-1.2,1-1.6s1-0.8,1.5-1.1c0.6-0.3,1.2-0.4,1.9-0.4c1.2,0,2,0.3,2.6,0.9c0.6,0.6,0.9,1.4,0.9,2.4
		c0,0.1,0,0.4,0,0.7c0,0.3-0.1,0.6-0.1,0.8H49.5z M55.4,132.4c0-0.1,0-0.2,0-0.3c0-0.1,0-0.2,0-0.3c0-0.6-0.2-1.2-0.6-1.6
		s-1-0.6-1.7-0.6c-0.4,0-0.9,0.1-1.2,0.2c-0.4,0.2-0.7,0.4-1,0.6c-0.3,0.3-0.5,0.6-0.7,0.9s-0.3,0.7-0.4,1.1H55.4z"/>
	<path class="st2" d="M65.2,130.1c0.1-0.2,0.3-0.4,0.5-0.6c0.2-0.2,0.5-0.4,0.7-0.5c0.3-0.1,0.6-0.3,0.9-0.3s0.6-0.1,1-0.1
		c0.6,0,1.1,0.1,1.6,0.3s0.9,0.4,1.2,0.7c0.3,0.3,0.6,0.7,0.8,1.2c0.2,0.4,0.3,0.9,0.3,1.5c0,0.7-0.1,1.4-0.4,2s-0.6,1.2-1,1.7
		c-0.4,0.5-1,0.8-1.6,1.1c-0.6,0.3-1.3,0.4-2,0.4c-0.6,0-1.2-0.1-1.7-0.4c-0.5-0.3-0.9-0.7-1.2-1.2h0l-1,5.7h-1.2l2.3-12.7h1.2
		L65.2,130.1L65.2,130.1z M70.8,132.3c0-0.4-0.1-0.7-0.2-1.1c-0.1-0.3-0.3-0.6-0.5-0.9c-0.2-0.2-0.5-0.4-0.8-0.6
		c-0.3-0.1-0.7-0.2-1.1-0.2c-0.5,0-1,0.1-1.5,0.3c-0.5,0.2-0.9,0.5-1.2,0.9c-0.3,0.4-0.6,0.8-0.8,1.3c-0.2,0.5-0.3,1-0.3,1.6
		c0,0.4,0.1,0.8,0.2,1.1c0.1,0.3,0.3,0.6,0.5,0.9c0.2,0.2,0.5,0.4,0.9,0.6c0.3,0.1,0.7,0.2,1.1,0.2c0.6,0,1.1-0.1,1.5-0.3
		c0.5-0.2,0.8-0.5,1.2-0.9s0.6-0.8,0.7-1.3C70.7,133.4,70.8,132.8,70.8,132.3z"/>
	<path class="st2" d="M75.1,129.7c0.1-0.4,0.1-0.7,0.1-1h1.2c0,0.2-0.1,0.5-0.1,0.8c0,0.3-0.1,0.5-0.1,0.7h0
		c0.3-0.5,0.7-0.9,1.2-1.2c0.5-0.3,1-0.5,1.6-0.5c0.2,0,0.3,0,0.4,0c0.1,0,0.2,0,0.4,0.1l-0.3,1.2c-0.1,0-0.2,0-0.3-0.1
		c-0.2,0-0.3,0-0.5,0c-0.3,0-0.6,0.1-1,0.2s-0.6,0.3-0.9,0.6s-0.5,0.6-0.7,1c-0.2,0.4-0.3,0.9-0.4,1.4l-0.8,4.3h-1.2l1.2-6.6
		C75,130.4,75,130.1,75.1,129.7z"/>
	<path class="st2" d="M81.1,137.2h-1.2l1.5-8.4h1.2L81.1,137.2z M83.3,125.5c0,0.2-0.1,0.4-0.2,0.6c-0.2,0.2-0.4,0.3-0.6,0.3
		c-0.2,0-0.4-0.1-0.6-0.2c-0.2-0.1-0.2-0.3-0.2-0.6s0.1-0.5,0.3-0.6s0.4-0.3,0.6-0.3s0.4,0.1,0.6,0.2
		C83.2,125.1,83.3,125.3,83.3,125.5z"/>
	<path class="st2" d="M87.2,137.2h-1.3l-1.8-8.4h1.2l1.4,7.1h0l4.2-7.1h1.3L87.2,137.2z"/>
	<path class="st2" d="M98.8,132c0-0.2,0.1-0.4,0.1-0.5c0-0.1,0-0.2,0-0.3c0-0.6-0.2-1-0.5-1.3s-0.8-0.4-1.5-0.4
		c-0.5,0-1,0.1-1.5,0.3c-0.5,0.2-0.9,0.4-1.2,0.7l-0.5-0.8c0.4-0.4,0.9-0.7,1.5-0.9c0.6-0.2,1.2-0.3,1.8-0.3c0.4,0,0.8,0,1.1,0.1
		c0.4,0.1,0.7,0.2,1,0.4s0.5,0.5,0.6,0.8c0.2,0.3,0.2,0.7,0.2,1.1c0,0.1,0,0.3,0,0.4c0,0.2,0,0.3-0.1,0.5l-0.6,3.4
		c-0.1,0.3-0.1,0.7-0.1,1s-0.1,0.6-0.1,0.9h-1.1c0-0.2,0-0.4,0-0.7s0-0.5,0.1-0.7h0c-0.2,0.3-0.5,0.5-0.7,0.7s-0.5,0.4-0.7,0.5
		c-0.3,0.1-0.5,0.2-0.8,0.3c-0.3,0.1-0.6,0.1-1,0.1c-0.3,0-0.6,0-0.9-0.1c-0.3-0.1-0.6-0.2-0.8-0.4c-0.2-0.2-0.5-0.4-0.6-0.7
		c-0.2-0.3-0.2-0.6-0.2-1c0-0.7,0.2-1.2,0.6-1.6c0.4-0.4,0.9-0.7,1.5-1c0.6-0.2,1.3-0.4,2.1-0.5S98.1,132,98.8,132z M98.4,132.9
		c-0.5,0-1.1,0-1.7,0.1c-0.6,0.1-1.1,0.2-1.5,0.3c-0.5,0.2-0.8,0.4-1.1,0.6c-0.3,0.3-0.4,0.6-0.4,1.1c0,0.3,0,0.5,0.1,0.7
		s0.2,0.3,0.4,0.4s0.3,0.2,0.6,0.2c0.2,0,0.4,0.1,0.6,0.1c0.4,0,0.8-0.1,1.2-0.2c0.4-0.1,0.7-0.3,1-0.6c0.3-0.3,0.5-0.5,0.7-0.9
		s0.3-0.7,0.4-1.1l0.1-0.7H98.4z"/>
	<path class="st2" d="M106.8,129.8h-2.3l-0.9,4.9c0,0.2-0.1,0.4-0.1,0.6c0,0.4,0.1,0.7,0.3,0.8c0.2,0.1,0.4,0.2,0.8,0.2
		c0.2,0,0.4,0,0.6-0.1c0.2-0.1,0.4-0.1,0.5-0.2l-0.1,1c-0.2,0.1-0.4,0.1-0.6,0.2c-0.2,0-0.5,0.1-0.8,0.1c-0.2,0-0.4,0-0.6-0.1
		s-0.4-0.1-0.6-0.3c-0.2-0.1-0.3-0.3-0.4-0.5c-0.1-0.2-0.2-0.5-0.2-0.8c0-0.2,0-0.4,0.1-0.6l0.9-5.3h-1.7l0.2-1h1.7l0.4-2.4h1.2
		l-0.4,2.4h2.3L106.8,129.8z"/>
	<path class="st2" d="M108.6,133.3c0,0.1,0,0.1,0,0.2c0,0.1,0,0.1,0,0.2c0,0.4,0.1,0.8,0.2,1.1c0.1,0.3,0.3,0.6,0.6,0.9
		c0.2,0.2,0.5,0.4,0.9,0.6s0.7,0.2,1.1,0.2c0.7,0,1.2-0.1,1.7-0.4c0.5-0.3,0.9-0.6,1.2-1l0.8,0.7c-0.5,0.6-1.1,1-1.7,1.3
		c-0.6,0.3-1.3,0.4-2.1,0.4c-0.5,0-1-0.1-1.5-0.3c-0.5-0.2-0.9-0.4-1.2-0.7c-0.3-0.3-0.6-0.7-0.8-1.2c-0.2-0.5-0.3-1-0.3-1.6
		c0-0.7,0.1-1.3,0.4-2c0.3-0.6,0.6-1.2,1-1.6s1-0.8,1.5-1.1c0.6-0.3,1.2-0.4,1.9-0.4c1.2,0,2,0.3,2.6,0.9c0.6,0.6,0.9,1.4,0.9,2.4
		c0,0.1,0,0.4,0,0.7c0,0.3-0.1,0.6-0.1,0.8H108.6z M114.5,132.4c0-0.1,0-0.2,0-0.3c0-0.1,0-0.2,0-0.3c0-0.6-0.2-1.2-0.6-1.6
		s-1-0.6-1.7-0.6c-0.4,0-0.9,0.1-1.2,0.2c-0.4,0.2-0.7,0.4-1,0.6c-0.3,0.3-0.5,0.6-0.7,0.9s-0.3,0.7-0.4,1.1H114.5z"/>
	<path class="st2" d="M120,128.8c0,0.2-0.1,0.5-0.1,0.8s-0.1,0.5-0.1,0.7h0c0.3-0.5,0.7-0.9,1.3-1.2c0.5-0.3,1.1-0.4,1.6-0.4
		c0.9,0,1.6,0.2,2.1,0.7s0.8,1.1,0.8,1.9c0,0.1,0,0.3,0,0.4c0,0.1,0,0.3-0.1,0.5l-0.9,5.2h-1.2l0.8-4.7c0.1-0.4,0.1-0.7,0.1-1.1
		c0-0.6-0.1-1.1-0.4-1.4c-0.3-0.3-0.8-0.5-1.5-0.5c-0.3,0-0.6,0.1-1,0.2c-0.3,0.1-0.6,0.3-0.9,0.6c-0.3,0.3-0.5,0.6-0.7,1
		c-0.2,0.4-0.4,0.9-0.5,1.5l-0.8,4.3h-1.2l1.2-6.6c0-0.2,0.1-0.5,0.2-0.9c0.1-0.4,0.1-0.7,0.1-1H120z"/>
	<path class="st2" d="M134.2,124.4h3.4c1.2,0,2.2,0.3,2.9,0.8s1,1.3,1,2.2c0,0.6-0.1,1.2-0.4,1.6c-0.2,0.5-0.6,0.9-1,1.2
		c-0.4,0.3-0.9,0.6-1.5,0.7c-0.6,0.2-1.2,0.2-2,0.2h-2.4l-1,5.9H132L134.2,124.4z M134.5,130.2h2.3c1.1,0,1.9-0.2,2.5-0.6
		c0.6-0.4,0.9-1.1,0.9-1.9c0-0.8-0.2-1.3-0.7-1.6c-0.5-0.3-1.2-0.5-2-0.5h-2.2L134.5,130.2z"/>
	<path class="st2" d="M146,137.4c-0.6,0-1.1-0.1-1.6-0.3c-0.5-0.2-0.9-0.4-1.2-0.7c-0.3-0.3-0.6-0.7-0.8-1.2s-0.3-0.9-0.3-1.5
		c0-0.7,0.1-1.4,0.4-2s0.6-1.2,1-1.7c0.4-0.5,1-0.8,1.6-1.1c0.6-0.3,1.3-0.4,2-0.4c0.6,0,1.1,0.1,1.6,0.3s0.9,0.4,1.2,0.7
		s0.6,0.7,0.8,1.2c0.2,0.4,0.3,0.9,0.3,1.5c0,0.7-0.1,1.4-0.4,2s-0.6,1.2-1,1.7c-0.4,0.5-1,0.8-1.6,1.1
		C147.4,137.3,146.8,137.4,146,137.4z M149.8,132.3c0-0.4-0.1-0.7-0.2-1.1c-0.1-0.3-0.3-0.6-0.5-0.9c-0.2-0.2-0.5-0.4-0.9-0.6
		c-0.3-0.1-0.7-0.2-1.1-0.2c-0.5,0-1,0.1-1.5,0.3c-0.4,0.2-0.8,0.5-1.1,0.9c-0.3,0.4-0.6,0.8-0.8,1.3s-0.3,1-0.3,1.6
		c0,0.4,0.1,0.7,0.2,1.1c0.1,0.3,0.3,0.6,0.5,0.9c0.2,0.2,0.5,0.4,0.8,0.6c0.3,0.1,0.7,0.2,1.1,0.2c0.5,0,1-0.1,1.5-0.3
		s0.8-0.5,1.2-0.9c0.3-0.4,0.6-0.8,0.8-1.3C149.7,133.4,149.8,132.8,149.8,132.3z"/>
	<path class="st2" d="M158.4,130.6c-0.2-0.3-0.4-0.6-0.8-0.8c-0.3-0.2-0.7-0.3-1.2-0.3c-0.2,0-0.4,0-0.7,0.1c-0.2,0-0.4,0.1-0.6,0.2
		c-0.2,0.1-0.4,0.2-0.5,0.4c-0.1,0.2-0.2,0.4-0.2,0.6c0,0.2,0,0.4,0.1,0.6c0.1,0.1,0.2,0.3,0.3,0.4s0.3,0.2,0.5,0.3
		c0.2,0.1,0.4,0.2,0.7,0.2c0.8,0.2,1.5,0.5,1.9,0.9c0.4,0.4,0.6,0.9,0.6,1.6c0,0.5-0.1,0.8-0.3,1.2s-0.5,0.6-0.8,0.8
		c-0.3,0.2-0.7,0.4-1,0.5c-0.4,0.1-0.8,0.1-1.1,0.1c-0.7,0-1.4-0.1-2-0.4c-0.6-0.3-1.1-0.7-1.4-1.2l1-0.7c0.2,0.3,0.5,0.6,0.9,0.9
		c0.4,0.2,0.9,0.4,1.4,0.4c0.3,0,0.5,0,0.8-0.1s0.5-0.1,0.7-0.3s0.4-0.3,0.5-0.5c0.1-0.2,0.2-0.4,0.2-0.7c0-0.4-0.2-0.8-0.5-1
		c-0.4-0.2-0.9-0.5-1.5-0.7c-0.3-0.1-0.5-0.2-0.8-0.3s-0.5-0.2-0.7-0.4c-0.2-0.2-0.4-0.4-0.5-0.6c-0.1-0.2-0.2-0.5-0.2-0.9
		c0-0.4,0.1-0.8,0.3-1.1c0.2-0.3,0.4-0.6,0.8-0.8s0.7-0.3,1-0.4c0.4-0.1,0.8-0.1,1.2-0.1c0.6,0,1.2,0.1,1.7,0.4s0.9,0.6,1.1,1
		L158.4,130.6z"/>
	<path class="st2" d="M165.3,129.8H163l-0.9,4.9c0,0.2-0.1,0.4-0.1,0.6c0,0.4,0.1,0.7,0.3,0.8c0.2,0.1,0.4,0.2,0.8,0.2
		c0.2,0,0.4,0,0.6-0.1c0.2-0.1,0.4-0.1,0.5-0.2l-0.1,1c-0.2,0.1-0.4,0.1-0.6,0.2c-0.2,0-0.5,0.1-0.8,0.1c-0.2,0-0.4,0-0.6-0.1
		s-0.4-0.1-0.6-0.3s-0.3-0.3-0.4-0.5c-0.1-0.2-0.2-0.5-0.2-0.8c0-0.2,0-0.4,0.1-0.6l0.9-5.3h-1.7l0.2-1h1.7l0.4-2.4h1.2l-0.4,2.4
		h2.3L165.3,129.8z"/>
	<path class="st2" d="M165.8,133.8c0-0.7,0.1-1.4,0.4-2c0.2-0.6,0.6-1.2,1-1.7c0.4-0.5,1-0.8,1.6-1.1c0.6-0.3,1.3-0.4,2-0.4
		c0.6,0,1.2,0.1,1.7,0.4c0.5,0.3,0.9,0.7,1.2,1.2h0l1.2-6.6h1.2l-2.4,13.6h-1.2l0.3-1.4h0c-0.3,0.4-0.7,0.8-1.2,1.1
		c-0.6,0.3-1.2,0.5-1.9,0.5c-0.6,0-1.1-0.1-1.6-0.3s-0.9-0.4-1.2-0.7s-0.6-0.7-0.8-1.2C165.9,134.8,165.8,134.3,165.8,133.8z
		 M167.1,133.7c0,0.4,0.1,0.7,0.2,1.1c0.1,0.3,0.3,0.6,0.5,0.9c0.2,0.2,0.5,0.4,0.8,0.6c0.3,0.1,0.7,0.2,1.1,0.2
		c0.5,0,1-0.1,1.5-0.3c0.5-0.2,0.9-0.5,1.2-0.9c0.3-0.4,0.6-0.8,0.8-1.3c0.2-0.5,0.3-1,0.3-1.6c0-0.4-0.1-0.8-0.2-1.1
		c-0.1-0.3-0.3-0.6-0.5-0.9c-0.2-0.2-0.5-0.4-0.9-0.6c-0.3-0.1-0.7-0.2-1.1-0.2c-0.6,0-1.1,0.1-1.5,0.3c-0.5,0.2-0.8,0.5-1.2,0.9
		c-0.3,0.4-0.6,0.8-0.7,1.3S167.1,133.1,167.1,133.7z"/>
	<path class="st2" d="M178.1,137.2h-1.2l1.5-8.4h1.2L178.1,137.2z M180.3,125.5c0,0.2-0.1,0.4-0.2,0.6c-0.2,0.2-0.4,0.3-0.6,0.3
		c-0.2,0-0.4-0.1-0.6-0.2c-0.2-0.1-0.2-0.3-0.2-0.6s0.1-0.5,0.3-0.6s0.4-0.3,0.6-0.3c0.2,0,0.4,0.1,0.6,0.2
		C180.2,125.1,180.3,125.3,180.3,125.5z"/>
	<path class="st2" d="M182.4,133.3c0,0.1,0,0.1,0,0.2c0,0.1,0,0.1,0,0.2c0,0.4,0.1,0.8,0.2,1.1c0.1,0.3,0.3,0.6,0.6,0.9
		c0.2,0.2,0.5,0.4,0.9,0.6s0.7,0.2,1.1,0.2c0.7,0,1.2-0.1,1.7-0.4c0.5-0.3,0.9-0.6,1.2-1l0.8,0.7c-0.5,0.6-1.1,1-1.7,1.3
		c-0.6,0.3-1.3,0.4-2.1,0.4c-0.5,0-1-0.1-1.5-0.3c-0.5-0.2-0.9-0.4-1.2-0.7c-0.3-0.3-0.6-0.7-0.8-1.2s-0.3-1-0.3-1.6
		c0-0.7,0.1-1.3,0.4-2s0.6-1.2,1-1.6c0.4-0.5,1-0.8,1.5-1.1s1.2-0.4,1.9-0.4c1.2,0,2,0.3,2.6,0.9c0.6,0.6,0.9,1.4,0.9,2.4
		c0,0.1,0,0.4,0,0.7c0,0.3-0.1,0.6-0.1,0.8H182.4z M188.3,132.4c0-0.1,0-0.2,0-0.3c0-0.1,0-0.2,0-0.3c0-0.6-0.2-1.2-0.6-1.6
		c-0.4-0.4-1-0.6-1.7-0.6c-0.4,0-0.9,0.1-1.2,0.2c-0.4,0.2-0.7,0.4-1,0.6c-0.3,0.3-0.5,0.6-0.7,0.9s-0.3,0.7-0.4,1.1H188.3z"/>
	<path class="st2" d="M193.8,128.8c0,0.2-0.1,0.5-0.1,0.8s-0.1,0.5-0.1,0.7h0c0.3-0.5,0.7-0.9,1.3-1.2s1.1-0.4,1.6-0.4
		c0.9,0,1.6,0.2,2.1,0.7s0.8,1.1,0.8,1.9c0,0.1,0,0.3,0,0.4c0,0.1,0,0.3-0.1,0.5l-0.9,5.2h-1.2l0.8-4.7c0.1-0.4,0.1-0.7,0.1-1.1
		c0-0.6-0.1-1.1-0.4-1.4s-0.8-0.5-1.5-0.5c-0.3,0-0.6,0.1-1,0.2s-0.6,0.3-0.9,0.6c-0.3,0.3-0.5,0.6-0.7,1s-0.4,0.9-0.5,1.5l-0.8,4.3
		h-1.2l1.2-6.6c0-0.2,0.1-0.5,0.2-0.9c0.1-0.4,0.1-0.7,0.1-1H193.8z"/>
	<path class="st2" d="M207.1,130.6c-0.2-0.3-0.4-0.6-0.8-0.8s-0.7-0.3-1.2-0.3c-0.2,0-0.4,0-0.7,0.1s-0.4,0.1-0.6,0.2
		c-0.2,0.1-0.4,0.2-0.5,0.4c-0.1,0.2-0.2,0.4-0.2,0.6c0,0.2,0,0.4,0.1,0.6c0.1,0.1,0.2,0.3,0.3,0.4s0.3,0.2,0.5,0.3
		c0.2,0.1,0.4,0.2,0.7,0.2c0.8,0.2,1.5,0.5,1.9,0.9c0.4,0.4,0.6,0.9,0.6,1.6c0,0.5-0.1,0.8-0.3,1.2c-0.2,0.3-0.5,0.6-0.8,0.8
		s-0.7,0.4-1,0.5c-0.4,0.1-0.8,0.1-1.1,0.1c-0.7,0-1.4-0.1-2-0.4c-0.6-0.3-1.1-0.7-1.4-1.2l1-0.7c0.2,0.3,0.5,0.6,0.9,0.9
		s0.9,0.4,1.4,0.4c0.3,0,0.5,0,0.8-0.1s0.5-0.1,0.7-0.3c0.2-0.1,0.4-0.3,0.5-0.5c0.1-0.2,0.2-0.4,0.2-0.7c0-0.4-0.2-0.8-0.5-1
		s-0.9-0.5-1.5-0.7c-0.3-0.1-0.5-0.2-0.8-0.3s-0.5-0.2-0.7-0.4c-0.2-0.2-0.4-0.4-0.5-0.6c-0.1-0.2-0.2-0.5-0.2-0.9
		c0-0.4,0.1-0.8,0.3-1.1c0.2-0.3,0.4-0.6,0.8-0.8c0.3-0.2,0.7-0.3,1-0.4c0.4-0.1,0.8-0.1,1.2-0.1c0.6,0,1.2,0.1,1.7,0.4
		s0.9,0.6,1.1,1L207.1,130.6z"/>
	<path class="st2" d="M214,129.8h-2.3l-0.9,4.9c0,0.2-0.1,0.4-0.1,0.6c0,0.4,0.1,0.7,0.3,0.8c0.2,0.1,0.4,0.2,0.8,0.2
		c0.2,0,0.4,0,0.6-0.1c0.2-0.1,0.4-0.1,0.5-0.2l-0.1,1c-0.2,0.1-0.4,0.1-0.6,0.2s-0.5,0.1-0.8,0.1c-0.2,0-0.4,0-0.6-0.1
		c-0.2,0-0.4-0.1-0.6-0.3s-0.3-0.3-0.4-0.5c-0.1-0.2-0.2-0.5-0.2-0.8c0-0.2,0-0.4,0.1-0.6l0.9-5.3h-1.7l0.2-1h1.7l0.4-2.4h1.2
		l-0.4,2.4h2.3L214,129.8z"/>
	<path class="st2" d="M215.8,137.2h-1.2l2.4-13.6h1.2L215.8,137.2z"/>
	<path class="st2" d="M220.2,133.3c0,0.1,0,0.1,0,0.2s0,0.1,0,0.2c0,0.4,0.1,0.8,0.2,1.1c0.1,0.3,0.3,0.6,0.6,0.9
		c0.2,0.2,0.5,0.4,0.9,0.6c0.3,0.1,0.7,0.2,1.1,0.2c0.7,0,1.2-0.1,1.7-0.4c0.5-0.3,0.9-0.6,1.2-1l0.8,0.7c-0.5,0.6-1.1,1-1.7,1.3
		c-0.6,0.3-1.3,0.4-2.1,0.4c-0.5,0-1-0.1-1.5-0.3c-0.5-0.2-0.9-0.4-1.2-0.7s-0.6-0.7-0.8-1.2s-0.3-1-0.3-1.6c0-0.7,0.1-1.3,0.4-2
		s0.6-1.2,1-1.6c0.4-0.5,1-0.8,1.5-1.1c0.6-0.3,1.2-0.4,1.9-0.4c1.2,0,2,0.3,2.6,0.9c0.6,0.6,0.9,1.4,0.9,2.4c0,0.1,0,0.4,0,0.7
		c0,0.3-0.1,0.6-0.1,0.8H220.2z M226,132.4c0-0.1,0-0.2,0-0.3c0-0.1,0-0.2,0-0.3c0-0.6-0.2-1.2-0.6-1.6c-0.4-0.4-1-0.6-1.7-0.6
		c-0.4,0-0.9,0.1-1.2,0.2c-0.4,0.2-0.7,0.4-1,0.6c-0.3,0.3-0.5,0.6-0.7,0.9s-0.3,0.7-0.4,1.1H226z"/>
	<path class="st2" d="M230.2,137.2H229l1.5-8.4h1.2L230.2,137.2z M232.4,125.5c0,0.2-0.1,0.4-0.2,0.6c-0.2,0.2-0.4,0.3-0.6,0.3
		c-0.2,0-0.4-0.1-0.6-0.2c-0.2-0.1-0.2-0.3-0.2-0.6s0.1-0.5,0.3-0.6s0.4-0.3,0.6-0.3c0.2,0,0.4,0.1,0.6,0.2
		C232.3,125.1,232.4,125.3,232.4,125.5z"/>
	<path class="st2" d="M239,130.6c-0.2-0.3-0.4-0.6-0.8-0.8s-0.7-0.3-1.2-0.3c-0.2,0-0.4,0-0.7,0.1c-0.2,0-0.5,0.1-0.6,0.2
		c-0.2,0.1-0.4,0.2-0.5,0.4c-0.1,0.2-0.2,0.4-0.2,0.6c0,0.2,0,0.4,0.1,0.6c0.1,0.1,0.2,0.3,0.3,0.4c0.1,0.1,0.3,0.2,0.5,0.3
		c0.2,0.1,0.4,0.2,0.7,0.2c0.8,0.2,1.5,0.5,1.9,0.9c0.4,0.4,0.6,0.9,0.6,1.6c0,0.5-0.1,0.8-0.3,1.2c-0.2,0.3-0.5,0.6-0.8,0.8
		c-0.3,0.2-0.7,0.4-1,0.5s-0.8,0.1-1.1,0.1c-0.7,0-1.4-0.1-2-0.4c-0.6-0.3-1.1-0.7-1.4-1.2l1-0.7c0.2,0.3,0.5,0.6,0.9,0.9
		s0.9,0.4,1.4,0.4c0.3,0,0.5,0,0.8-0.1s0.5-0.1,0.7-0.3c0.2-0.1,0.4-0.3,0.5-0.5c0.1-0.2,0.2-0.4,0.2-0.7c0-0.4-0.2-0.8-0.5-1
		c-0.4-0.2-0.9-0.5-1.5-0.7c-0.3-0.1-0.5-0.2-0.8-0.3s-0.5-0.2-0.7-0.4c-0.2-0.2-0.4-0.4-0.5-0.6c-0.1-0.2-0.2-0.5-0.2-0.9
		c0-0.4,0.1-0.8,0.3-1.1s0.5-0.6,0.8-0.8s0.7-0.3,1-0.4c0.4-0.1,0.8-0.1,1.2-0.1c0.6,0,1.2,0.1,1.7,0.4s0.9,0.6,1.1,1L239,130.6z"/>
	<path class="st2" d="M245.9,129.8h-2.3l-0.9,4.9c0,0.2-0.1,0.4-0.1,0.6c0,0.4,0.1,0.7,0.3,0.8c0.2,0.1,0.4,0.2,0.8,0.2
		c0.2,0,0.4,0,0.6-0.1c0.2-0.1,0.4-0.1,0.5-0.2l-0.1,1c-0.2,0.1-0.4,0.1-0.6,0.2s-0.5,0.1-0.8,0.1c-0.2,0-0.4,0-0.6-0.1
		c-0.2,0-0.4-0.1-0.6-0.3s-0.3-0.3-0.4-0.5c-0.1-0.2-0.2-0.5-0.2-0.8c0-0.2,0-0.4,0.1-0.6l0.9-5.3h-1.7l0.2-1h1.7l0.4-2.4h1.2
		l-0.4,2.4h2.3L245.9,129.8z"/>
	<path class="st2" d="M247.6,133.3c0,0.1,0,0.1,0,0.2s0,0.1,0,0.2c0,0.4,0.1,0.8,0.2,1.1c0.1,0.3,0.3,0.6,0.6,0.9
		c0.2,0.2,0.5,0.4,0.9,0.6c0.3,0.1,0.7,0.2,1.1,0.2c0.7,0,1.2-0.1,1.7-0.4c0.5-0.3,0.9-0.6,1.2-1l0.8,0.7c-0.5,0.6-1.1,1-1.7,1.3
		c-0.6,0.3-1.3,0.4-2.1,0.4c-0.5,0-1-0.1-1.5-0.3c-0.5-0.2-0.9-0.4-1.2-0.7s-0.6-0.7-0.8-1.2s-0.3-1-0.3-1.6c0-0.7,0.1-1.3,0.4-2
		s0.6-1.2,1-1.6c0.4-0.5,1-0.8,1.5-1.1c0.6-0.3,1.2-0.4,1.9-0.4c1.2,0,2,0.3,2.6,0.9c0.6,0.6,0.9,1.4,0.9,2.4c0,0.1,0,0.4,0,0.7
		c0,0.3-0.1,0.6-0.1,0.8H247.6z M253.5,132.4c0-0.1,0-0.2,0-0.3c0-0.1,0-0.2,0-0.3c0-0.6-0.2-1.2-0.6-1.6c-0.4-0.4-1-0.6-1.7-0.6
		c-0.4,0-0.9,0.1-1.2,0.2c-0.4,0.2-0.7,0.4-1,0.6c-0.3,0.3-0.5,0.6-0.7,0.9s-0.3,0.7-0.4,1.1H253.5z"/>
	<path class="st2" d="M257.7,129.7c0.1-0.4,0.1-0.7,0.1-1h1.2c0,0.2-0.1,0.5-0.1,0.8s-0.1,0.5-0.1,0.7h0c0.3-0.5,0.7-0.9,1.2-1.2
		c0.5-0.3,1-0.5,1.6-0.5c0.2,0,0.3,0,0.4,0c0.1,0,0.2,0,0.4,0.1l-0.3,1.2c-0.1,0-0.2,0-0.3-0.1c-0.2,0-0.3,0-0.5,0
		c-0.3,0-0.6,0.1-1,0.2s-0.6,0.3-0.9,0.6c-0.3,0.3-0.5,0.6-0.7,1c-0.2,0.4-0.3,0.9-0.4,1.4l-0.8,4.3h-1.2l1.2-6.6
		C257.6,130.4,257.7,130.1,257.7,129.7z"/>
</g>
</svg>
